<?xml version="1.0" encoding="utf-8"?>
<!-- Generator: Adobe Illustrator 27.5.0, SVG Export Plug-In . SVG Version: 6.00 Build 0)  -->
<svg version="1.1" id="Layer_1" xmlns="http://www.w3.org/2000/svg" xmlns:xlink="http://www.w3.org/1999/xlink" x="0px" y="0px"
	 viewBox="0 0 156 156" style="enable-background:new 0 0 156 156;" xml:space="preserve">
<style type="text/css">
	.st0{fill:#FFFFFF;}
	.st1{fill:#EDEDED;}
	.st2{fill:none;stroke:#FFFFFF;stroke-width:0.5;stroke-miterlimit:10;}
</style>
<path class="st0" d="M76.7-99c-0.4-3.7-2-6.4-4.6-7.9c-2.9-1.7-7.2-1.8-10.3-0.2c-2.2,1.1-4.1,3.3-4.9,5.8c-0.8,2.6-0.8,5.9,0,8.5
	c0.5,1.7,1.3,2.9,2.4,4c1.3,1.3,3.1,2.2,5.1,2.5c0.7,0.1,3,0.1,3.7,0c0.4,0,1-0.2,1.4-0.3c3.7-1.1,6.1-3.9,7-7.9
	C76.7-95.5,76.8-97.9,76.7-99z M70.4-94.6c-0.3,3.9-1.1,6-2.7,6.7c-0.6,0.3-1.6,0.3-2.1,0c-1.4-0.6-2.3-2.5-2.8-5.5
	c-0.3-1.9-0.3-6.1-0.1-8.1c0.4-2.9,1.2-4.6,2.5-5.2c0.9-0.4,2.1-0.2,2.9,0.6C69.9-104.5,70.8-100,70.4-94.6z"/>
<path class="st0" d="M113.9-100.7c-0.8-3.8-3.2-6.4-6.4-7.1c-0.5-0.1-0.9-0.1-1.9-0.1c-1.4,0-2.4,0.3-3.5,0.8
	c-0.4,0.2-0.7,0.3-0.7,0.3s0-2.2,0-4.8c0-3.7,0-4.8,0-4.8c-0.3,0-8.8,1.6-8.9,1.7s-0.1,0.2-0.1,0.5c0,0.5,0,0.4,1,0.7
	c0.3,0.1,0.7,0.2,0.8,0.3c0.3,0.2,0.6,0.8,0.8,1.5c0.2,0.6,0.2,1,0.3,5.1c0.1,4.2,0.1,8.4-0.1,16.3v3.3l0.6,0.1
	c0.9,0.2,3.4,0.6,4.2,0.7c1.2,0.1,4,0.1,4.9,0c3.9-0.6,6.8-2.8,8.2-6.3c0.4-0.9,0.7-2.3,0.8-3.4C114.2-97.3,114.1-99.8,113.9-100.7z
	 M107.7-94.7c-0.4,2.4-1.1,4.3-2,5.5c-0.5,0.6-1.2,1.1-1.9,1.3c-0.4,0.1-1.2,0.1-2,0.1c-0.2,0-0.3-0.1-0.4-0.1
	c-0.1-0.2-0.3-11.5-0.2-14.8l0.1-2.6l0.7-0.2c1-0.3,2-0.2,2.8,0.1c1.5,0.7,2.5,2.5,3,5.4C107.9-99.1,107.9-95.8,107.7-94.7z"/>
<path class="st0" d="M134.3-99.8c-0.4-3.7-1.9-6.3-4.5-7.6c-2.3-1.1-5.8-1.1-8.4,0.2c-2.4,1.2-4.1,3.2-5.1,6
	c-0.5,1.5-0.6,2.6-0.6,4.5c0,1.2,0.1,1.8,0.2,2.4c1,4.3,3.9,7.2,8,8c0.9,0.2,3,0.2,3.9,0c1.3-0.2,2.8-0.8,3.8-1.5
	c1.2-0.8,2.4-2,2.4-2.3c0-0.2-0.4-0.7-0.6-0.7c-0.1,0-0.4,0.2-0.7,0.4c-1.1,0.7-2.2,1-3.7,1c-2.1,0-3.4-0.5-4.7-1.9
	c-0.6-0.6-0.8-0.9-1.1-1.5c-0.7-1.3-1-2.8-1.1-4.5V-98h6.2h6.2v-0.4C134.4-98.7,134.3-99.3,134.3-99.8z M126.6-99.9
	c-0.8,0-2.1,0.1-3,0.1H122v-0.3c0-0.2,0.1-0.7,0.1-1.1c0.5-3.3,1.8-5.4,3.3-5.4c1.4,0,2.3,2,2.5,5.6l0.1,1L126.6-99.9z"/>
<path class="st0" d="M150.8-96.1c-0.7-1.4-2-2.4-4.7-3.5c-2.2-0.9-3.3-1.6-4-2.3c-0.5-0.6-0.7-1.1-0.7-2c0-0.8,0.3-1.3,0.8-1.9
	c0.7-0.7,1.6-1,2.7-0.7c1.8,0.4,2.9,1.6,3.9,4.3c0.4,0.9,0.4,1,1,0.7l0.4-0.1v-1.1c0-0.6,0-1.8-0.1-2.8l-0.1-1.7l-0.3-0.1
	c-1.6-0.7-4.8-1.1-6.8-0.9c-2.3,0.2-4,0.9-5.3,2.3s-1.9,2.9-1.8,4.8c0.1,1.6,0.5,2.7,1.5,3.7c0.9,0.9,1.6,1.3,3.8,2.2
	c3.5,1.3,4.4,2.1,4.4,3.8c0,1.4-0.8,2.4-2.1,2.9c-0.5,0.2-1.7,0.2-2.4,0c-1.7-0.5-3-1.9-4.1-4.7l-0.3-0.7h-0.3
	c-0.2,0-0.4,0.1-0.6,0.1l-0.2,0.1v1.2c0,0.7,0,2.1,0.1,3.1l0.1,1.9l0.4,0.2c0.8,0.3,3.1,0.9,4.6,1c0.2,0,1.2,0,2.2,0
	c1.8,0,2,0,2.9-0.3c2.7-0.7,4.5-2.2,5.2-4.5c0.2-0.7,0.3-0.9,0.3-2C151.3-94.4,151.2-95.1,150.8-96.1z"/>
<path class="st0" d="M59.3-111.5c0-2.1-0.1-4-0.1-4.2l-0.1-0.3H47.6c-6.3,0-11.6,0-11.7,0h-0.3v0.7v0.7l0.9,0.1
	c1.1,0.1,1.8,0.5,2.2,1c0.9,1.3,1.1,3.1,1.1,11.7c0,9.1-0.2,11.3-1.1,12.5c-0.5,0.6-0.8,0.8-1.8,1c-1.3,0.2-1.3,0.2-1.3,0.9
	c0,0.4,0,0.6,0.1,0.6c0.1,0.1,14.8,0.1,15,0s0.2-1.2,0-1.3c-0.1,0-0.6-0.1-1.1-0.2s-1.1-0.2-1.3-0.3c-1-0.4-1.5-1.6-1.7-3.7
	c-0.1-1.5-0.3-4.3-0.3-6.3v-1.9h0.9c1.9,0.1,2.9,0.2,3.3,0.3c0.9,0.4,1.6,1.4,1.9,2.9l0.2,0.8h0.7H54v-5v-5h-0.7h-0.7l-0.2,0.8
	c-0.4,1.5-1,2.5-1.9,2.9c-0.4,0.2-0.6,0.2-1.5,0.3c-0.6,0-1.4,0.1-1.9,0.1h-0.8v-2.5c0-2.5,0.1-7.7,0.2-8.6v-0.4h2.6
	c3,0,3.5,0.1,4.6,0.6c1.5,0.8,2.7,2.3,3.7,4.9c0.4,1.1,0.4,1.1,1.3,0.8l0.6-0.2L59.3-111.5z"/>
<path class="st0" d="M91.7-108.3c-1,0-1.5,0.1-2.3,0.5c-1.4,0.7-2.5,1.7-3.5,3.4l-0.3,0.5v-1c0-0.5,0.1-1.5,0.1-2.2v-1.2h-0.2
	c-0.3,0-8.5,1.6-8.7,1.7s-0.2,0.1-0.2,0.5s0,0.5,0.2,0.5c0.1,0,0.5,0.1,0.8,0.2c0.7,0.1,0.9,0.3,1.2,0.7c0.6,0.7,0.7,2,0.7,7.5
	c0,4.5-0.1,6.7-0.3,7.4c-0.3,0.9-0.7,1.3-1.5,1.4c-0.3,0-0.6,0.1-0.8,0.2L76.7-88v0.6c0,0.4,0,0.6,0.1,0.6s2.9,0.1,6.3,0h6.2v-0.6
	c0-0.4,0-0.6,0-0.6c-0.5,0-1.9-0.2-2.2-0.3c-0.7-0.3-1-0.9-1.2-2.2c-0.2-1.5-0.3-5.2-0.2-8.2c0-3.1,0-3.1,0.2-3.3
	c0.4-0.5,1.6-0.9,2.6-0.9c0.8,0,1.6,0.2,2.5,0.6c0.4,0.2,0.8,0.4,0.9,0.3c0.1,0,2.1-5.4,2.1-5.6C93.9-107.9,92.8-108.3,91.7-108.3z"
	/>
<g>
	<path class="st0" d="M164.8-111h-3.7v3.4h4.1v1h-5.3v-9.5h5.1v1h-3.9v3h3.7L164.8-111L164.8-111z"/>
	<path class="st0" d="M173.4-106.8c-0.4,0.2-1.3,0.4-2.5,0.4c-2.7,0-4.7-1.7-4.7-4.8c0-3,2-5,4.9-5c1.2,0,1.9,0.3,2.2,0.4l-0.3,1
		c-0.5-0.2-1.1-0.4-1.9-0.4c-2.2,0-3.7,1.4-3.7,3.9c0,2.3,1.3,3.8,3.6,3.8c0.7,0,1.5-0.2,2-0.4L173.4-106.8z"/>
</g>
<g>
	<path class="st0" d="M125.2,46.8c0.5,0.1,0.7,0,0.9-0.5c1.6-4.5-0.9-10.6-5.3-12.8c0,1.1,0,2.2,0,3.3c-0.1,1.1-0.2,2.2-0.4,3.3
		C119.9,43.4,123.2,46.2,125.2,46.8z"/>
	<path class="st0" d="M136.2,84.3c-0.4,1.1-0.7,2.3-0.9,3.5c0,0.8,0.1,1.6,0.2,2.4c0,0.3,0.3,0.5,0.6,0.5c0.1,0,0.2,0,0.3-0.1
		c1-0.3,1.9-0.7,2.9-1.2c3.5-2.5,4.2-6.2,4.5-10.2l-0.4,0.2c-1.6,0.9-3.2,1.9-4.9,2.7C137.5,82.6,136.8,83.3,136.2,84.3z"/>
	<path class="st0" d="M135.4,66.7c0.4,0.6,0.8,0.6,1.3,0c3.5-3.5,3.5-9.2,1.1-13.6c-1.2,1.8-2.4,3.7-3.6,5.6
		c-0.3,0.4-0.5,0.9-0.6,1.4C133.2,62.5,133.9,64.9,135.4,66.7z"/>
	<path class="st0" d="M106,119.9c2.8-0.4,5.1-2.6,5.6-5.4c0.2-2.3,0.3-4.6,0.5-6.9c-1.5,0.7-2.9,1.6-4.1,2.8
		c-2.3,2.3-3.4,5.6-2.9,8.8C105.3,119.8,105.5,120,106,119.9z"/>
	<path class="st0" d="M131.3,55.9c0.6,0.4,0.9,0.3,1.3-0.3c2.6-4.3,1.3-9.8-2.2-13.7c-0.2,1-0.4,1.9-0.7,2.8c-0.3,0.9-0.6,1.9-1,2.8
		C127.5,50.7,128.6,54.1,131.3,55.9z"/>
	<path class="st0" d="M111.8,48c1.5,1.4,3.4,2.3,5.4,2.8c2.5,0.6,5.1-0.1,7-1.9c0.5-0.4,0.5-0.8,0.2-1.3c-1.1-1.7-2.9-2.9-4.9-3.1
		c-0.8,0-1.5,0.1-2.2,0.5C115.4,46,113.7,47,111.8,48z"/>
	<path class="st0" d="M122.3,108.6c0.6,0.8,0.8,0.9,1.5,0.2c1.6-1.5,2.5-3.6,2.5-5.8c0-0.6-0.1-1.1-0.3-1.7
		c-0.9-2.1-1.8-4.2-2.7-6.3c-1.3,1.9-2.2,4.1-2.6,6.3C120.3,103.9,120.9,106.5,122.3,108.6z"/>
	<path class="st0" d="M128.8,100.2c0.5,0.5,0.9,0.4,1.3-0.2c0.9-1.4,1.4-3.1,1.5-4.8c0-1.4-0.5-2.8-1.4-3.9c-1.1-1.3-2-2.7-3-4
		c-0.1-0.2-0.3-0.4-0.5-0.6c-0.2,0.2-0.3,0.4-0.4,0.7c-0.3,1.1-0.5,2.2-0.7,3.3C124.9,94.4,125.8,97.7,128.8,100.2z"/>
	<path class="st0" d="M134,95.1c-1.6,1.5-2.6,3.6-2.6,5.9c0,0.6,0.3,0.9,0.9,0.9c2.2,0.1,4.3-0.7,5.8-2.2c1.8-1.8,3.1-4.1,3.7-6.6
		c-2,0.4-4,0.7-6,1.2C135.2,94.3,134.5,94.6,134,95.1z"/>
	<path class="st0" d="M128.9,105.3c-2,1-3.4,2.9-3.8,5.1c-0.1,0.3,0,0.6,0.3,0.8c0.1,0,0.1,0,0.2,0c0.7,0.2,1.5,0.4,2.2,0.5
		c3.7,0.3,7.8-2.6,9.2-6.2c-2.1-0.2-4.2-0.5-6.3-0.6C130,104.9,129.4,105,128.9,105.3z"/>
	<path class="st0" d="M133.4,68.3c0.6-0.1,0.8-0.3,0.8-0.9c-0.2-2.3-1.3-4.3-3.1-5.7c-0.5-0.4-1.1-0.6-1.8-0.6
		c-2-0.2-4.1-0.3-6.1-0.5c0.7,2,1.8,3.8,3.2,5.3C128.1,67.8,130.8,68.7,133.4,68.3z"/>
	<path class="st0" d="M123.2,52.5c-0.2,0.1-0.5,0.1-0.7,0.2l-4.3,0.7c1.2,1.8,2.7,3.3,4.6,4.4c2.2,1.3,5,1.4,7.3,0.2
		c0.5-0.2,0.6-0.6,0.4-1c-0.4-1-1-1.9-1.6-2.8C127.3,52.4,125.5,51.5,123.2,52.5z"/>
	<path class="st0" d="M121.8,113.7c-2.2,0.3-4.1,1.8-5.1,3.8c-0.2,0.3-0.2,0.7,0.1,0.9c0.1,0,0.1,0.1,0.2,0.1c1,0.6,2.1,1.1,3.2,1.4
		c3.9,0.8,6.6-1.2,9.1-3.6c-1.9-0.8-3.7-1.5-5.5-2.2C123.2,113.8,122.4,113.7,121.8,113.7z"/>
	<path class="st0" d="M112.3,119.7c-1.9-0.1-3.8,0.6-5.1,2c-0.5,0.5-0.5,0.9,0,1.5c3,3.7,7.9,4,12.3,1.2c-1.6-1.3-3.2-2.6-5-3.9
		C113.8,120.1,113,119.8,112.3,119.7z"/>
	<path class="st0" d="M133.9,89.7c0.6-1.7,0.7-3.6,0.3-5.3c-0.3-1.3-1.1-2.5-2.3-3.2c-0.8-0.5-1.6-1.1-2.4-1.7
		c-0.7-0.6-1.3-1.2-2-1.8c-0.1,0.2-0.2,0.3-0.2,0.4c-0.3,2.5,0.1,5.1,1,7.5c0.8,2,2.3,3.5,4.2,4.5C133.2,90.4,133.8,90.3,133.9,89.7
		z"/>
	<path class="st0" d="M136.9,71c-1.3,2.3-1.3,5-0.2,7.3c0.4,0.9,0.6,0.9,1.5,0.4c1.9-1.2,3.3-3.1,3.9-5.2c0.7-2.5,0.7-5.1,0.2-7.6
		c-1.7,1.5-3.3,3-5,4.6C137.2,70.6,137.1,70.8,136.9,71z"/>
	<path class="st0" d="M114.8,106.7c-1.4,2.7-1.5,5.8-0.4,8.6c0.2,0.5,0.4,0.7,1,0.5c2.4-0.9,4.5-4.1,4.2-6.6s-0.8-4.7-1.2-7
		C116.9,103.4,115.8,105,114.8,106.7z"/>
	<path class="st0" d="M135.4,78.3c0.2-1.6-0.1-3.1-0.7-4.6c-0.5-1.3-1.5-2.3-2.7-2.8l-5.6-2.2c0.2,2.7,1.2,5.3,2.9,7.4
		c1.2,1.6,3,2.7,5,3C134.9,79.4,135.3,79.1,135.4,78.3z"/>
	<path class="st0" d="M118.8,42.2c-0.2-1.5-0.7-3-1.5-4.3c-0.9-1.8-2.6-3.1-4.6-3.5c-1.2-0.2-2.4-0.8-3.2-1.8
		C109.4,38.8,113.8,43.4,118.8,42.2z"/>
	<path class="st0" d="M30.7,46.8c-0.5,0.1-0.7,0-0.9-0.5c-1.6-4.5,0.9-10.6,5.3-12.8c0,1.1,0,2.2,0,3.3s0.2,2.2,0.4,3.3
		C35.9,43.4,32.7,46.2,30.7,46.8z"/>
	<path class="st0" d="M19.5,84.3c0.4,1.1,0.7,2.3,0.9,3.5c0,0.8-0.1,1.6-0.2,2.4c0,0.3-0.2,0.5-0.5,0.5c-0.1,0-0.2,0-0.3-0.1
		c-1-0.3-1.9-0.7-2.8-1.2c-3.5-2.5-4.2-6.2-4.5-10.2l0.4,0.2c1.6,0.9,3.2,1.9,4.9,2.7C18.3,82.5,19.2,83.3,19.5,84.3z"/>
	<path class="st0" d="M20.4,66.7c-0.4,0.6-0.8,0.6-1.3,0c-3.5-3.5-3.5-9.1-1.1-13.6c1.2,1.8,2.4,3.7,3.6,5.6
		c0.3,0.4,0.4,0.9,0.5,1.4C22.5,62.5,21.9,64.9,20.4,66.7z"/>
	<path class="st0" d="M49.8,119.9c-2.8-0.4-5.1-2.6-5.6-5.4c-0.2-2.3-0.3-4.6-0.5-6.9c1.5,0.7,2.9,1.6,4.1,2.8
		c2.3,2.3,3.4,5.6,2.8,8.8C50.5,119.8,50.3,120,49.8,119.9z"/>
	<path class="st0" d="M24.5,55.9c-0.6,0.4-0.9,0.3-1.3-0.3c-2.6-4.3-1.3-9.8,2.2-13.7c0.2,1,0.4,1.9,0.7,2.8s0.6,1.9,1,2.8
		C28.2,50.7,27.2,54.1,24.5,55.9z"/>
	<path class="st0" d="M44,48c-1.5,1.4-3.4,2.3-5.4,2.8c-2.5,0.6-5.1-0.1-7-1.9c-0.5-0.4-0.5-0.8-0.2-1.3c1.1-1.7,2.9-2.9,4.9-3.1
		c0.8,0,1.5,0.1,2.2,0.5C40.4,46,42.2,47,44,48z"/>
	<path class="st0" d="M33.4,108.6c-0.6,0.8-0.8,0.9-1.5,0.2c-1.6-1.5-2.5-3.6-2.5-5.8c0-0.6,0.1-1.1,0.4-1.7
		c0.9-2.1,1.8-4.2,2.7-6.3c1.3,1.9,2.2,4.1,2.6,6.3C35.5,103.9,34.9,106.5,33.4,108.6z"/>
	<path class="st0" d="M27.2,100.2c-0.5,0.5-0.9,0.4-1.2-0.2c-0.9-1.4-1.4-3.1-1.5-4.8c0-1.4,0.5-2.8,1.4-3.9c1.1-1.3,2-2.7,3-4
		c0.1-0.2,0.3-0.4,0.4-0.6c0.2,0.2,0.3,0.4,0.4,0.7c0.3,1.1,0.5,2.2,0.7,3.3C30.8,94.4,30,97.7,27.2,100.2z"/>
	<path class="st0" d="M21.7,95.1c1.6,1.5,2.6,3.6,2.6,5.9c0,0.6-0.3,0.9-0.9,0.9c-2.2,0.1-4.3-0.7-5.8-2.2c-1.8-1.8-3.1-4.1-3.7-6.6
		c2,0.4,4,0.7,6,1.2C20.7,94.3,21.2,94.6,21.7,95.1z"/>
	<path class="st0" d="M26.9,105.3c2,1,3.4,2.9,3.9,5.1c0.1,0.3,0,0.6-0.3,0.8c-0.1,0-0.1,0-0.2,0c-0.7,0.2-1.5,0.4-2.2,0.5
		c-3.7,0.3-7.8-2.6-9.2-6.2c2.1-0.2,4.2-0.5,6.3-0.6C25.7,104.9,26.3,105,26.9,105.3z"/>
	<path class="st0" d="M22.4,68.3c-0.6-0.1-0.8-0.3-0.8-0.9c0.2-2.3,1.3-4.3,3.1-5.7c0.5-0.3,1.1-0.5,1.8-0.6c2-0.2,4.1-0.3,6.1-0.5
		c-0.7,2-1.8,3.8-3.2,5.3C27.7,67.8,25,68.7,22.4,68.3z"/>
	<path class="st0" d="M32.7,52.5c0.2,0.1,0.5,0.1,0.7,0.2l4.3,0.7c-1.2,1.8-2.7,3.3-4.6,4.4c-2.2,1.3-5,1.4-7.3,0.2
		c-0.5-0.2-0.7-0.6-0.4-1c0.5-1,1-1.9,1.7-2.7C28.5,52.4,30.3,51.5,32.7,52.5z"/>
	<path class="st0" d="M34,113.7c2.2,0.3,4.1,1.8,5.1,3.8c0.2,0.3,0.2,0.7-0.1,0.9c-0.1,0-0.1,0.1-0.2,0.1c-1,0.6-2.1,1.1-3.2,1.4
		c-3.9,0.8-6.6-1.2-9.1-3.6c1.9-0.8,3.7-1.5,5.5-2.2C32.7,113.8,33.3,113.7,34,113.7z"/>
	<path class="st0" d="M43.7,119.7c1.9-0.1,3.8,0.6,5.1,2c0.5,0.5,0.5,0.9,0,1.5c-3,3.7-7.9,4-12.3,1.2c1.6-1.3,3.2-2.6,5-3.9
		C42,120.1,42.8,119.8,43.7,119.7z"/>
	<path class="st0" d="M21.9,89.7c-0.6-1.7-0.7-3.6-0.3-5.3c0.3-1.3,1.1-2.5,2.3-3.2c0.8-0.5,1.6-1.1,2.4-1.7c0.7-0.6,1.3-1.2,2-1.8
		c0.1,0.2,0.2,0.3,0.2,0.4c0.3,2.5-0.1,5.1-1,7.5c-0.8,2-2.3,3.5-4.2,4.5C22.5,90.4,22.2,90.3,21.9,89.7z"/>
	<path class="st0" d="M18.8,71c1.3,2.2,1.3,5,0.2,7.3c-0.4,0.9-0.6,0.9-1.4,0.4c-1.9-1.2-3.3-3.1-3.9-5.2C13,71,13,68.4,13.5,65.9
		c1.7,1.5,3.3,3,5,4.6C18.7,70.6,18.7,70.8,18.8,71z"/>
	<path class="st0" d="M40.9,106.7c1.4,2.7,1.5,5.8,0.4,8.6c-0.2,0.5-0.4,0.7-1,0.5c-2.4-0.9-4.5-4.1-4.2-6.6s0.8-4.7,1.2-7
		C38.8,103.4,40.2,105,40.9,106.7z"/>
	<path class="st0" d="M20.4,78.3c-0.2-1.6,0.1-3.1,0.7-4.6c0.5-1.3,1.5-2.3,2.8-2.8l5.6-2.2c-0.2,2.7-1.2,5.3-2.8,7.4
		c-1.2,1.6-3,2.7-5,3C20.9,79.4,20.5,79.1,20.4,78.3z"/>
	<path class="st0" d="M37,42.2c0.2-1.5,0.7-3,1.5-4.3c0.9-1.8,2.6-3,4.5-3.5c1.2-0.2,2.4-0.8,3.2-1.8C46.4,38.8,41.9,43.4,37,42.2z"
		/>
	<polygon class="st0" points="80.8,112.8 87,113.8 82.4,118.1 83.4,124.3 77.9,121.3 72.4,124.2 73.5,118 69,113.6 75.2,112.8 
		78.2,107.2 	"/>
	<polygon class="st0" points="96.7,118.5 100.8,119.1 97.8,122.1 98.4,126.3 94.8,124.2 90.9,126.2 91.8,122 88.7,119 92.9,118.4 
		94.8,114.6 	"/>
	<polygon class="st0" points="63.4,118.5 67.7,119.1 64.5,122.1 65.2,126.3 61.5,124.2 57.7,126.2 58.4,122 55.4,119 59.7,118.4 
		61.7,114.6 	"/>
	<path class="st0" d="M67.2,40.9c0,0.5,0.1,1,0.2,1.5c0.2,0.4,0.3,0.8,0.5,1.2C68,43.7,68,43.9,68,44c0,0.2-0.1,0.4-0.3,0.5
		l-1.1,0.7c-0.1,0.1-0.3,0.2-0.4,0.2c-0.2,0-0.4-0.1-0.5-0.2c-0.2-0.2-0.4-0.5-0.6-0.8s-0.3-0.6-0.5-1c-1.3,1.6-3,2.3-5,2.3
		c-1.4,0-2.6-0.4-3.4-1.2c-0.8-0.8-1.3-1.9-1.3-3.3s0.5-2.6,1.5-3.5s2.4-1.3,4.1-1.3c0.6,0,1.2,0.1,1.8,0.1c0.6,0.1,1.3,0.2,1.9,0.4
		v-1.2c0-1.3-0.3-2.2-0.8-2.7s-1.5-0.8-2.8-0.8c-0.6,0-1.2,0.1-1.8,0.2c-0.6,0.2-1.2,0.3-1.8,0.6c-0.2,0.1-0.4,0.2-0.6,0.2
		c-0.1,0-0.2,0.1-0.3,0.1c-0.2,0-0.4-0.2-0.4-0.5V32c0-0.2,0-0.4,0.1-0.6s0.3-0.3,0.5-0.4c0.7-0.3,1.4-0.6,2.1-0.8
		c0.9-0.2,1.7-0.3,2.6-0.3c2,0,3.5,0.5,4.4,1.4c0.9,0.9,1.4,2.3,1.4,4.2L67.2,40.9L67.2,40.9z M60.3,43.5c0.6,0,1.2-0.1,1.7-0.3
		c0.6-0.2,1.2-0.6,1.6-1.1c0.3-0.3,0.5-0.7,0.6-1.1c0.1-0.5,0.2-1,0.2-1.5v-0.7c-0.5-0.1-1-0.2-1.6-0.3c-0.5-0.1-1.1-0.1-1.6-0.1
		c-1.1,0-2,0.2-2.5,0.7c-0.6,0.5-0.8,1.1-0.8,1.9s0.2,1.4,0.6,1.8C59,43.2,59.5,43.5,60.3,43.5z M73.8,45.3c-0.2,0-0.5,0-0.6-0.2
		c-0.2-0.2-0.3-0.4-0.4-0.7l-4-13.1c-0.1-0.2-0.1-0.4-0.2-0.7c0-0.2,0.1-0.4,0.3-0.4H69h1.7c0.3,0,0.5,0.1,0.7,0.2
		c0.1,0.1,0.2,0.3,0.3,0.7l2.8,11.2l2.6-11.2c0.1-0.3,0.2-0.6,0.3-0.7c0.2-0.1,0.4-0.2,0.7-0.2h1.4c0.3,0,0.5,0.1,0.7,0.2
		c0.2,0.2,0.3,0.4,0.3,0.7l2.7,11.3l2.9-11.3c0.1-0.3,0.2-0.5,0.3-0.7c0.2-0.1,0.4-0.2,0.7-0.2h1.6c0.2,0,0.4,0.1,0.4,0.3v0.1
		c0,0.1,0,0.2,0,0.3c0,0.2-0.1,0.3-0.1,0.4l-4,13.2c-0.1,0.3-0.2,0.6-0.4,0.7c-0.2,0.1-0.4,0.2-0.6,0.2h-1.5c-0.3,0-0.5-0.1-0.7-0.2
		c-0.2-0.2-0.3-0.4-0.3-0.7l-2.6-10.9l-2.6,10.9c0,0.3-0.2,0.5-0.3,0.7c-0.2,0.1-0.4,0.2-0.7,0.2L73.8,45.3L73.8,45.3z M95.7,45.8
		c-0.9,0-1.8-0.1-2.6-0.3c-0.8-0.2-1.5-0.4-1.9-0.7c-0.2-0.1-0.4-0.3-0.5-0.5s-0.1-0.3-0.1-0.5v-0.9c0-0.4,0.1-0.5,0.4-0.5
		c0.1,0,0.2,0,0.3,0.1c0.1,0,0.3,0.1,0.4,0.2c0.6,0.3,1.2,0.5,1.9,0.6c0.7,0.1,1.3,0.2,2,0.2c1.1,0,1.9-0.2,2.5-0.6
		c0.6-0.3,0.9-0.9,0.9-1.6c0-0.4-0.2-0.9-0.5-1.2s-0.9-0.6-1.7-0.9l-2.5-0.8c-1.2-0.4-2.1-1-2.7-1.7c-0.5-0.7-0.8-1.6-0.8-2.5
		c0-0.7,0.1-1.3,0.5-1.9c0.3-0.5,0.7-1,1.2-1.4s1.1-0.7,1.8-0.9c0.7-0.2,1.4-0.3,2.1-0.3c0.4,0,0.8,0,1.1,0.1
		c0.4,0.1,0.7,0.1,1.1,0.2s0.7,0.2,1,0.3s0.5,0.2,0.7,0.3s0.4,0.2,0.5,0.4s0.2,0.4,0.2,0.6v0.9c0,0.4-0.1,0.5-0.4,0.5
		c-0.2,0-0.4-0.1-0.6-0.2c-1-0.5-2.1-0.7-3.3-0.7c-1,0-1.7,0.2-2.3,0.5c-0.5,0.3-0.8,0.8-0.8,1.5c0,0.5,0.2,0.9,0.5,1.2
		s1,0.6,1.9,0.9l2.4,0.8c1.2,0.4,2.1,0.9,2.6,1.6c0.5,0.7,0.8,1.5,0.8,2.4c0,0.7-0.1,1.4-0.4,2s-0.7,1.1-1.2,1.5
		c-0.6,0.4-1.2,0.8-1.9,0.9C97.3,45.6,96.4,45.8,95.7,45.8z"/>
	<path class="st1" d="M98.8,54c-5.6,4.1-13.7,6.3-20.6,6.3c-9.8,0-18.5-3.6-25.2-9.6c-0.5-0.5-0.1-1.1,0.6-0.7
		c7.2,4.2,16,6.7,25.2,6.7c6.6,0,13.1-1.4,19.2-3.9C98.9,52.3,99.8,53.3,98.8,54z M101.2,51.3c-0.7-0.9-4.7-0.4-6.5-0.2
		c-0.5,0.1-0.6-0.4-0.1-0.8c3.2-2.2,8.4-1.6,9-0.8s-0.2,6-3.1,8.5c-0.5,0.4-0.9,0.2-0.7-0.3C100.3,56,101.8,52.2,101.2,51.3
		L101.2,51.3z"/>
	<g>
		<path class="st0" d="M73.8,74.1c-0.3-0.2-0.6-0.3-1-0.3s-0.8,0.1-1.1,0.3c-0.2,0.1-0.4,0.4-0.5,0.8h3.2
			C74.2,74.5,74.1,74.3,73.8,74.1z"/>
		<path class="st0" d="M51.9,73.9c-0.5,0-0.8,0.2-1.1,0.5s-0.5,0.7-0.5,1.2s0.2,0.9,0.5,1.3c0.3,0.3,0.7,0.5,1.1,0.5
			c0.5,0,0.8-0.2,1.2-0.5s0.5-0.7,0.5-1.3c0-0.5-0.2-0.9-0.5-1.2C52.8,74,52.4,73.9,51.9,73.9z"/>
		<path class="st0" d="M45.1,72.1h-0.4v1.6h0.5c0.4,0,0.6,0,0.8-0.1s0.3-0.1,0.3-0.3c0.1-0.1,0.1-0.3,0.1-0.5c0-0.3-0.1-0.5-0.4-0.7
			C45.8,72.1,45.5,72.1,45.1,72.1z"/>
		<path class="st0" d="M117.4,67.1H43.2c-1.8,0-3.3,1.5-3.3,3.3v7.8c0,1.8,1.5,3.3,3.3,3.3h74.2c1.8,0,3.3-1.5,3.3-3.3v-7.8
			C120.6,68.6,119.2,67.1,117.4,67.1z M47.4,74.3c-0.3,0.4-0.7,0.6-1.2,0.8c-0.3,0.1-0.8,0.1-1.6,0.1v3.4h-1.5v-7.9h1.6
			c0.9,0,1.5,0.1,1.9,0.2c0.4,0.2,0.7,0.4,0.9,0.8s0.3,0.8,0.3,1.3C47.8,73.4,47.7,73.9,47.4,74.3z M55,78.5h-1.5v-0.6
			c-0.3,0.3-0.6,0.5-0.9,0.6s-0.6,0.2-0.9,0.2c-0.8,0-1.4-0.3-2-0.9s-0.8-1.3-0.8-2.2c0-0.9,0.3-1.6,0.8-2.2s1.2-0.9,2-0.9
			c0.4,0,0.7,0.1,1,0.2s0.6,0.3,0.9,0.6v-0.6H55V78.5z M58.8,73.9c-0.2-0.1-0.3-0.1-0.4-0.1c-0.2,0-0.4,0.1-0.6,0.4
			c-0.2,0.3-0.2,0.8-0.2,1.7v0.3v2.4h-1.5v-5.9h1.3v0.7c0.1-0.3,0.3-0.5,0.5-0.7s0.5-0.2,0.7-0.2s0.4,0.1,0.6,0.2L58.8,73.9z
			 M62.5,73.9h-0.9v4.6h-1.5v-4.6h-0.8v-1.3h0.8v-2.2h1.5v2.2h0.9V73.9z M68.5,78.5H67V76c0-0.7,0-1.2-0.1-1.4
			c-0.1-0.2-0.2-0.4-0.3-0.5s-0.3-0.2-0.6-0.2c-0.3,0-0.6,0.1-0.8,0.3c-0.2,0.2-0.4,0.5-0.4,0.8c0,0.2-0.1,0.6-0.1,1.2v2.4h-1.5
			v-5.9h1.5v0.6c0.3-0.3,0.6-0.5,0.9-0.6s0.5-0.2,0.8-0.2c0.6,0,1.1,0.2,1.5,0.6c0.3,0.3,0.5,0.9,0.5,1.5L68.5,78.5L68.5,78.5z
			 M75.8,76h-4.7c0.1,0.4,0.3,0.7,0.5,1c0.3,0.2,0.7,0.4,1.1,0.4c0.6,0,1-0.2,1.4-0.6l1.2,0.6c-0.3,0.4-0.7,0.8-1.1,1
			s-0.9,0.3-1.5,0.3c-0.9,0-1.7-0.3-2.3-0.9s-0.9-1.3-0.9-2.2c0-0.9,0.3-1.6,0.9-2.2s1.3-0.9,2.2-0.9c0.9,0,1.7,0.3,2.3,0.9
			c0.6,0.6,0.9,1.4,0.9,2.3V76z M79.4,73.9c-0.2-0.1-0.3-0.1-0.4-0.1c-0.2,0-0.4,0.1-0.6,0.4s-0.2,0.8-0.2,1.7v0.3v2.4h-1.5v-5.9H78
			v0.7c0.1-0.3,0.3-0.5,0.5-0.7s0.5-0.2,0.7-0.2s0.4,0.1,0.6,0.2L79.4,73.9z M87.4,78.1c-0.5,0.4-1,0.6-1.8,0.6
			c-0.6,0-1.1-0.1-1.5-0.4S83.3,77.6,83,77l1.3-0.8c0.4,0.7,0.8,1.1,1.3,1.1c0.3,0,0.5-0.1,0.7-0.2c0.2-0.2,0.3-0.3,0.3-0.5
			s-0.1-0.4-0.2-0.5c-0.1-0.2-0.4-0.5-0.9-0.8c-0.9-0.7-1.4-1.2-1.7-1.6c-0.3-0.4-0.4-0.8-0.4-1.1c0-0.6,0.2-1,0.6-1.4
			s0.9-0.6,1.6-0.6c0.4,0,0.8,0.1,1.1,0.3c0.4,0.2,0.7,0.5,1.2,1l-1.1,1c-0.4-0.5-0.8-0.8-1.2-0.8c-0.2,0-0.4,0.1-0.5,0.2
			s-0.1-0.1-0.1,0c0,0.1,0,0.3,0.1,0.4c0.1,0.2,0.5,0.5,1.1,1s0.9,0.8,1,0.9c0.3,0.3,0.5,0.6,0.7,0.9c0.1,0.3,0.2,0.6,0.2,0.9
			C88.1,77.1,87.9,77.7,87.4,78.1z M93.9,72.1h-2.8v1.4h2.8V75h-2.8v2h2.8v1.5h-4.3v-7.9h4.3V72.1z M99,78.5h-3.7v-7.9h1.5v6.5H99
			V78.5z M104.5,72.1h-2.8v1.4h2.8V75h-2.8v2h2.8v1.5h-4.3v-7.9h4.3V72.1z M107.4,76c0.2,0.4,0.6,0.7,1,1c0.4,0.2,0.9,0.4,1.4,0.4
			c0.4,0,0.8-0.1,1.2-0.2c0.4-0.2,0.8-0.5,1.2-0.9l1,1.1c-0.6,0.6-1.1,1-1.7,1.2c-0.5,0.2-1.1,0.3-1.8,0.3c-1.2,0-2.2-0.4-3-1.2
			s-1.2-1.8-1.2-3c0-0.8,0.2-1.5,0.5-2.1c0.4-0.6,0.9-1.1,1.5-1.5c0.7-0.4,1.4-0.6,2.2-0.6c0.7,0,1.3,0.1,1.9,0.4s1.1,0.7,1.6,1.2
			l-1.1,1c-0.7-0.8-1.5-1.1-2.4-1.1c-0.8,0-1.4,0.3-1.9,0.8S107,74,107,74.7C107,75.1,107.1,75.5,107.4,76z M118.1,72.1h-1.4v6.5
			h-1.5v-6.5h-1.4v-1.5h4.4L118.1,72.1L118.1,72.1z"/>
	</g>
	<path class="st2" d="M65.6,96.5h-1.8c0-0.9,0.4-1.8,1-2.4c0.6-0.6,1.4-0.9,2.3-0.9c0.5,0,1.1,0.1,1.5,0.4c0.4,0.2,0.8,0.6,1.1,1.1
		c0.3,0.4,0.4,0.9,0.4,1.4c0,0.6-0.2,1.3-0.5,1.8c-0.5,0.8-1.1,1.6-1.8,2.3l-1.1,1.1h3.4v1.7h-6.6v-0.9l2.9-3c0.5-0.5,1-1.1,1.4-1.7
		c0.2-0.4,0.3-0.8,0.3-1.2c0-0.3-0.1-0.7-0.4-0.9c-0.2-0.2-0.6-0.4-0.9-0.4c-0.4,0-0.7,0.1-1,0.4C65.7,95.7,65.6,96.1,65.6,96.5z"/>
	<path class="st2" d="M74.3,93.2c1.3-0.1,2.5,0.8,2.9,2.1c0.3,0.9,0.5,1.9,0.4,2.9c0,1-0.1,2-0.4,2.9c-0.2,0.6-0.6,1.1-1.1,1.5
		c-0.5,0.3-1.1,0.5-1.8,0.5c-0.6,0-1.3-0.1-1.8-0.5c-0.5-0.4-0.9-0.9-1.1-1.5c-0.3-0.9-0.5-1.9-0.5-2.9c-0.1-1.3,0.2-2.6,0.8-3.8
		C72.4,93.7,73.3,93.2,74.3,93.2z M74.3,94.9c-0.3,0-0.6,0.1-0.8,0.3c-0.3,0.3-0.5,0.6-0.5,1c-0.1,0.7-0.2,1.4-0.2,2.1
		c-0.1,0.8,0.1,1.7,0.4,2.5c0.2,0.4,0.6,0.7,1.1,0.7c0.4,0,0.8-0.3,1-0.7c0.6-1.7,0.6-3.5,0-5.2C75.1,95.3,74.8,95,74.3,94.9
		L74.3,94.9z"/>
	<path class="st2" d="M80.3,96.5h-1.8c0-0.9,0.4-1.8,1-2.4c0.6-0.6,1.4-0.9,2.3-0.9c0.5,0,1.1,0.1,1.5,0.4c0.4,0.3,0.8,0.6,1,1.1
		c0.3,0.4,0.4,0.9,0.4,1.4c0,0.6-0.2,1.3-0.5,1.8c-0.5,0.8-1.1,1.6-1.8,2.3l-1.1,1.1h3.4v1.7h-6.5v-0.9l2.9-3c0.5-0.5,1-1.1,1.4-1.7
		c0.2-0.4,0.3-0.8,0.3-1.2c0-0.3-0.1-0.7-0.4-0.9c-0.2-0.2-0.6-0.4-0.9-0.4c-0.4,0-0.7,0.1-1,0.4C80.4,95.7,80.3,96.1,80.3,96.5z"/>
	<path class="st2" d="M87.7,96.5H86c0-0.9,0.4-1.8,1-2.4c0.6-0.6,1.4-0.9,2.3-0.9c0.5,0,1.1,0.1,1.5,0.4c0.4,0.3,0.8,0.6,1,1.1
		c0.2,0.4,0.4,0.9,0.4,1.3c0,0.6-0.2,1.3-0.5,1.8c-0.5,0.8-1.1,1.6-1.8,2.3l-1.1,1.1h3.4v1.7h-6.6V102l2.9-3c0.5-0.5,1-1.1,1.4-1.7
		c0.2-0.4,0.3-0.8,0.3-1.2c0-0.3-0.1-0.7-0.4-0.9c-0.3-0.2-0.6-0.4-0.9-0.4c-0.4,0-0.7,0.1-1,0.4C87.8,95.7,87.7,96.1,87.7,96.5z"/>
</g>
</svg>
