<svg id="Layer_1" data-name="Layer 1" xmlns="http://www.w3.org/2000/svg" xmlns:xlink="http://www.w3.org/1999/xlink" viewBox="0 0 156 156"><defs><style>.cls-1,.cls-6{fill:none;}.cls-2{clip-path:url(#clip-path);}.cls-3,.cls-4{fill:#fff;}.cls-4,.cls-5{fill-rule:evenodd;}.cls-5{fill:#f1f2f2;}.cls-6{stroke:#fff;stroke-miterlimit:10;stroke-width:0.5px;}</style><clipPath id="clip-path"><rect class="cls-1" width="156" height="156"/></clipPath></defs><g class="cls-2"><path class="cls-3" d="M125.08,47.64c.46.12.7,0,.88-.49,1.61-4.45-.9-10.63-5.26-12.78,0,1.11,0,2.21,0,3.3a33.08,33.08,0,0,1-.36,3.29C119.85,44.24,123.06,47.09,125.08,47.64Z"/><path class="cls-3" d="M136.2,85.22a14.83,14.83,0,0,0-.89,3.48,9.05,9.05,0,0,0,.24,2.41.55.55,0,0,0,.82.47,14.28,14.28,0,0,0,2.85-1.24c3.47-2.47,4.23-6.18,4.5-10.21l-.37.18c-1.62.91-3.21,1.89-4.88,2.71A4.4,4.4,0,0,0,136.2,85.22Z"/><path class="cls-3" d="M135.37,67.62c.42.57.78.59,1.31,0,3.49-3.52,3.51-9.16,1.09-13.64-1.16,1.82-2.38,3.71-3.57,5.62a4.12,4.12,0,0,0-.55,1.38A8.17,8.17,0,0,0,135.37,67.62Z"/><path class="cls-3" d="M106,120.83a6.57,6.57,0,0,0,5.61-5.39c.19-2.29.31-4.58.46-6.9a13.47,13.47,0,0,0-4.06,2.81,10,10,0,0,0-2.85,8.81C105.22,120.71,105.48,120.86,106,120.83Z"/><path class="cls-3" d="M131.28,56.82c.59.39.92.35,1.29-.29,2.56-4.35,1.34-9.8-2.22-13.67-.23,1-.41,1.91-.68,2.84s-.61,1.91-1,2.84A7.06,7.06,0,0,0,131.28,56.82Z"/><path class="cls-3" d="M111.74,48.91a12.69,12.69,0,0,0,5.35,2.84,7.74,7.74,0,0,0,7-1.87c.46-.41.55-.77.2-1.27a6.76,6.76,0,0,0-4.91-3.09,4.29,4.29,0,0,0-2.19.46C115.38,46.89,113.59,47.91,111.74,48.91Z"/><path class="cls-3" d="M122.33,109.49c.56.83.77.87,1.5.15a7.88,7.88,0,0,0,2.53-5.83,4.85,4.85,0,0,0-.35-1.68c-.87-2.1-1.8-4.17-2.71-6.27a15.19,15.19,0,0,0-2.61,6.35A10,10,0,0,0,122.33,109.49Z"/><path class="cls-3" d="M128.66,101.08c.54.46.89.39,1.26-.16a9.24,9.24,0,0,0,1.48-4.76A5.89,5.89,0,0,0,130,92.24c-1.09-1.27-2-2.67-3-4-.14-.19-.3-.37-.45-.56a2.82,2.82,0,0,0-.43.69,32,32,0,0,0-.71,3.31C124.93,95.32,125.78,98.56,128.66,101.08Z"/><path class="cls-3" d="M134,95.94a8,8,0,0,0-2.59,5.88c0,.63.27.86.89.88a7.78,7.78,0,0,0,5.82-2.17,14.19,14.19,0,0,0,3.7-6.63c-2,.39-4,.73-6,1.18A4.11,4.11,0,0,0,134,95.94Z"/><path class="cls-3" d="M128.86,106.19a7.49,7.49,0,0,0-3.85,5.12.59.59,0,0,0,.48.82,12.46,12.46,0,0,0,2.22.5c3.68.26,7.75-2.55,9.16-6.15-2.06-.22-4.16-.47-6.26-.63A3.5,3.5,0,0,0,128.86,106.19Z"/><path class="cls-3" d="M133.37,69.18c.57-.09.84-.32.77-.92A7.7,7.7,0,0,0,131,62.57a3.76,3.76,0,0,0-1.76-.62c-2-.22-4.06-.34-6.12-.5a14.83,14.83,0,0,0,3.22,5.3A7.85,7.85,0,0,0,133.37,69.18Z"/><path class="cls-3" d="M123.12,53.37a2.79,2.79,0,0,1-.69.17l-4.32.71a13.68,13.68,0,0,0,4.56,4.36,7.56,7.56,0,0,0,7.32.19c.48-.24.65-.58.43-1a15.14,15.14,0,0,0-1.64-2.75C127.29,53.29,125.46,52.41,123.12,53.37Z"/><path class="cls-3" d="M121.72,114.58a6.76,6.76,0,0,0-5.09,3.83.64.64,0,0,0,.31,1,14.71,14.71,0,0,0,3.2,1.44c3.85.77,6.64-1.23,9.14-3.64-1.88-.76-3.68-1.54-5.51-2.23A4.52,4.52,0,0,0,121.72,114.58Z"/><path class="cls-3" d="M112.19,120.58a6.49,6.49,0,0,0-5.11,2c-.51.5-.48.92,0,1.47,3,3.72,7.93,4,12.26,1.22-1.62-1.28-3.25-2.64-5-3.88A4.54,4.54,0,0,0,112.19,120.58Z"/><path class="cls-3" d="M133.89,90.58a8.82,8.82,0,0,0,.27-5.35,4.84,4.84,0,0,0-2.31-3.16,20.4,20.4,0,0,1-2.35-1.71c-.68-.56-1.31-1.18-2-1.82-.08.18-.18.29-.18.41a15.6,15.6,0,0,0,1,7.5,8.9,8.9,0,0,0,4.24,4.48C133.24,91.28,133.65,91.18,133.89,90.58Z"/><path class="cls-3" d="M136.94,71.86a7.81,7.81,0,0,0-.17,7.28c.38.89.61.92,1.45.39a9.13,9.13,0,0,0,3.94-5.23,16,16,0,0,0,.16-7.58c-1.66,1.53-3.31,3-4.95,4.58A2.09,2.09,0,0,0,136.94,71.86Z"/><path class="cls-3" d="M114.8,107.59a10.27,10.27,0,0,0-.39,8.57c.19.5.43.69,1,.49,2.37-.86,4.53-4.12,4.19-6.58s-.78-4.69-1.18-7A14.29,14.29,0,0,0,114.8,107.59Z"/><path class="cls-3" d="M135.35,79.23a9,9,0,0,0-.73-4.55,4.85,4.85,0,0,0-2.74-2.79l-5.64-2.17a14.49,14.49,0,0,0,2.85,7.43,8,8,0,0,0,5,3C134.86,80.24,135.27,80,135.35,79.23Z"/><path class="cls-3" d="M118.76,43.12a10.56,10.56,0,0,0-1.5-4.35,6.64,6.64,0,0,0-4.56-3.46,5.08,5.08,0,0,1-3.2-1.77C109.35,39.67,113.84,44.26,118.76,43.12Z"/><path class="cls-3" d="M30.66,47.64c-.46.12-.7,0-.88-.49-1.61-4.45.9-10.63,5.26-12.78,0,1.11,0,2.21,0,3.3s.19,2.2.35,3.29C35.89,44.24,32.68,47.09,30.66,47.64Z"/><path class="cls-3" d="M19.54,85.22a14.83,14.83,0,0,1,.89,3.48,8.67,8.67,0,0,1-.25,2.41.54.54,0,0,1-.81.47,14.28,14.28,0,0,1-2.85-1.24c-3.47-2.47-4.23-6.18-4.5-10.21l.37.18C14,81.22,15.6,82.2,17.26,83A4.38,4.38,0,0,1,19.54,85.22Z"/><path class="cls-3" d="M20.37,67.62c-.42.57-.78.59-1.31,0C15.57,64.15,15.55,58.51,18,54c1.16,1.82,2.38,3.71,3.57,5.62A4.34,4.34,0,0,1,22.09,61,8.17,8.17,0,0,1,20.37,67.62Z"/><path class="cls-3" d="M49.76,120.83a6.57,6.57,0,0,1-5.61-5.39c-.19-2.29-.31-4.58-.46-6.9a13.47,13.47,0,0,1,4.06,2.81,10,10,0,0,1,2.84,8.81C50.51,120.71,50.26,120.86,49.76,120.83Z"/><path class="cls-3" d="M24.46,56.82c-.59.39-.92.35-1.3-.29-2.55-4.35-1.33-9.8,2.23-13.67.23,1,.41,1.91.68,2.84s.61,1.91,1,2.84A7.06,7.06,0,0,1,24.46,56.82Z"/><path class="cls-3" d="M44,48.91a12.69,12.69,0,0,1-5.35,2.84,7.74,7.74,0,0,1-7-1.87c-.46-.41-.55-.77-.2-1.27a6.76,6.76,0,0,1,4.91-3.09,4.33,4.33,0,0,1,2.19.46C40.36,46.89,42.15,47.91,44,48.91Z"/><path class="cls-3" d="M33.41,109.49c-.56.83-.77.87-1.5.15a7.88,7.88,0,0,1-2.53-5.83,4.85,4.85,0,0,1,.35-1.68c.87-2.1,1.8-4.17,2.71-6.27a15.19,15.19,0,0,1,2.61,6.35A10,10,0,0,1,33.41,109.49Z"/><path class="cls-3" d="M27.07,101.08c-.53.46-.88.39-1.25-.16a9.24,9.24,0,0,1-1.48-4.76,5.89,5.89,0,0,1,1.42-3.92c1.09-1.27,2-2.67,3-4,.14-.19.3-.37.45-.56a3.16,3.16,0,0,1,.43.69,32,32,0,0,1,.71,3.31C30.81,95.32,30,98.56,27.07,101.08Z"/><path class="cls-3" d="M21.7,95.94a8,8,0,0,1,2.59,5.88c0,.63-.27.86-.89.88a7.78,7.78,0,0,1-5.82-2.17,14.19,14.19,0,0,1-3.7-6.63c2,.39,4,.73,6,1.18A4.11,4.11,0,0,1,21.7,95.94Z"/><path class="cls-3" d="M26.88,106.19a7.49,7.49,0,0,1,3.85,5.12.59.59,0,0,1-.48.82,12.46,12.46,0,0,1-2.22.5c-3.68.26-7.76-2.55-9.16-6.15,2.06-.22,4.16-.47,6.26-.63A3.5,3.5,0,0,1,26.88,106.19Z"/><path class="cls-3" d="M22.37,69.18c-.57-.09-.84-.32-.78-.92a7.74,7.74,0,0,1,3.14-5.69A3.76,3.76,0,0,1,26.48,62c2-.22,4.07-.34,6.13-.5a14.72,14.72,0,0,1-3.23,5.3A7.82,7.82,0,0,1,22.37,69.18Z"/><path class="cls-3" d="M32.62,53.37a2.79,2.79,0,0,0,.69.17l4.32.71a13.68,13.68,0,0,1-4.56,4.36,7.56,7.56,0,0,1-7.32.19c-.48-.24-.66-.58-.43-1A15.14,15.14,0,0,1,27,55.05C28.45,53.29,30.28,52.41,32.62,53.37Z"/><path class="cls-3" d="M34,114.58a6.76,6.76,0,0,1,5.09,3.83.64.64,0,0,1-.31,1,14.71,14.71,0,0,1-3.2,1.44c-3.85.77-6.64-1.23-9.14-3.64,1.88-.76,3.68-1.54,5.51-2.23A4.52,4.52,0,0,1,34,114.58Z"/><path class="cls-3" d="M43.55,120.58a6.49,6.49,0,0,1,5.11,2c.51.5.48.92,0,1.47-3,3.72-7.93,4-12.26,1.22,1.62-1.28,3.25-2.64,5-3.88A4.54,4.54,0,0,1,43.55,120.58Z"/><path class="cls-3" d="M21.85,90.58a8.82,8.82,0,0,1-.27-5.35,4.86,4.86,0,0,1,2.3-3.16,19.57,19.57,0,0,0,2.35-1.71c.69-.56,1.32-1.18,2-1.82.08.18.18.29.18.41a15.6,15.6,0,0,1-1,7.5,8.88,8.88,0,0,1-4.25,4.48C22.5,91.28,22.09,91.18,21.85,90.58Z"/><path class="cls-3" d="M18.8,71.86A7.84,7.84,0,0,1,19,79.14c-.38.89-.61.92-1.45.39a9.13,9.13,0,0,1-3.94-5.23,16,16,0,0,1-.16-7.58c1.66,1.53,3.31,3,5,4.58A2.32,2.32,0,0,1,18.8,71.86Z"/><path class="cls-3" d="M40.94,107.59a10.31,10.31,0,0,1,.39,8.57c-.19.5-.43.69-1,.49-2.37-.86-4.53-4.12-4.19-6.58s.78-4.69,1.18-7A14.29,14.29,0,0,1,40.94,107.59Z"/><path class="cls-3" d="M20.39,79.23a9.08,9.08,0,0,1,.72-4.55,4.9,4.9,0,0,1,2.75-2.79l5.63-2.17a14.47,14.47,0,0,1-2.84,7.43,8,8,0,0,1-5,3C20.88,80.24,20.46,80,20.39,79.23Z"/><path class="cls-3" d="M37,43.12a10.56,10.56,0,0,1,1.5-4.35A6.64,6.64,0,0,1,43,35.31a5.08,5.08,0,0,0,3.2-1.77C46.39,39.67,41.9,44.26,37,43.12Z"/><polygon class="cls-3" points="80.78 113.72 86.97 114.68 82.44 119 83.44 125.19 77.92 122.22 72.35 125.08 73.47 118.91 69.03 114.5 75.24 113.66 78.07 108.07 80.78 113.72"/><polygon class="cls-3" points="96.62 119.36 100.82 120.01 97.75 122.95 98.42 127.15 94.68 125.13 90.89 127.07 91.65 122.89 88.64 119.89 92.85 119.32 94.78 115.52 96.62 119.36"/><polygon class="cls-3" points="63.39 119.36 67.59 120.01 64.52 122.95 65.19 127.15 61.45 125.13 57.66 127.07 58.42 122.89 55.41 119.89 59.62 119.32 61.55 115.52 63.39 119.36"/><g id="OBJECTS"><path class="cls-4" d="M92.13,30.74v2.81h3.75s0-2.81,0-2.81h1.84v7H95.88V34.66H92.13v3.08H90.26s0-7,0-7Z"/><path class="cls-4" d="M74.55,30.74V32H71.7v5.79H69.86V32H67V30.74Z"/><path class="cls-4" d="M81.74,37.74h-2l-.62-1.5H75.6L75,37.74H72.94l3.27-7h2.26ZM77.36,32,76.07,35.1h2.57Z"/><polygon class="cls-4" points="99.18 30.74 101.03 30.74 101.03 37.74 99.18 37.74 99.18 30.74 99.18 30.74"/><polygon class="cls-4" points="57.46 30.74 57.46 33.55 61.21 33.55 61.21 30.74 63.05 30.74 63.05 37.74 61.21 37.74 61.21 34.66 57.46 34.66 57.46 37.74 55.62 37.74 55.62 30.74 57.46 30.74 57.46 30.74"/><polygon class="cls-4" points="64.51 30.74 66.39 30.74 66.39 37.74 64.51 37.74 64.51 30.74 64.51 30.74"/><path class="cls-4" d="M81.68,35.81a4.28,4.28,0,0,1-.27-1.5,4.14,4.14,0,0,1,.5-2A3.19,3.19,0,0,1,83.49,31a5.71,5.71,0,0,1,4.39.12,2.2,2.2,0,0,1,1.33,1.61l.09.44h-2a1.6,1.6,0,0,0-.09-.53,1.42,1.42,0,0,0-.89-.82,3.67,3.67,0,0,0-.81-.11,2.58,2.58,0,0,0-.91.17,1.65,1.65,0,0,0-1,1,4.79,4.79,0,0,0-.23,1.46,4.31,4.31,0,0,0,.18,1.23,1.74,1.74,0,0,0,1,1.1,3.39,3.39,0,0,0,1,.18,2.4,2.4,0,0,0,.84-.15,1.24,1.24,0,0,0,.82-.73,1.52,1.52,0,0,0,.15-.73h2a2.52,2.52,0,0,1-.09.67A2.25,2.25,0,0,1,88,37.41a5.86,5.86,0,0,1-2.4.49,6.3,6.3,0,0,1-1.88-.28A3,3,0,0,1,81.68,35.81Z"/><path class="cls-4" d="M54,39.7l-1.64.14v.23h.06c.65.08.65.08.65.55v3.47h1V39.67Z"/><path class="cls-4" d="M57.46,41a1.43,1.43,0,0,0-1.17.66V41h-.06l-1.34.2v.23H55c.44,0,.52.12.52.5v2.17h.82V42.51c0-.41.41-1,.82-1s.44.32.44.89v1.66h.82V41.92a.83.83,0,0,0-.9-.93Z"/><path class="cls-4" d="M60.71,42.18c-.32-.14-.62-.29-.62-.53s.33-.26.45-.26a1.49,1.49,0,0,1,.79.26l.14.09V41.1h-.11A2.46,2.46,0,0,0,60.6,41c-.79,0-1.26.35-1.26.91s.5.73.94,1,.64.32.64.55-.21.35-.56.35a1.72,1.72,0,0,1-.9-.32l-.12-.06V44l.09,0a3.42,3.42,0,0,0,.9.12c.85,0,1.35-.35,1.35-.94S61.18,42.42,60.71,42.18Z"/><path class="cls-4" d="M64.39,41a1.24,1.24,0,0,0-.91.44V41h-.06l-1.31.2v.23h.06c.41,0,.5.12.5.5v3.45h.82V43.79a1,1,0,0,0,.89.38c.85,0,1.31-.58,1.31-1.64S65.23,41,64.41,41Zm-.26.46c.58,0,.64.62.64,1.08,0,.8-.2,1.17-.61,1.17s-.67-.49-.67-.93v-.26c0-.33.06-1.06.64-1.06Z"/><path class="cls-4" d="M66.27,41.19v.23h.06c.41,0,.49.12.49.5v2.17h.82V41h-.06l-1.31.21Z"/><path class="cls-4" d="M67.23,40.6a.49.49,0,0,0,.53-.44.51.51,0,0,0-1,0h0a.5.5,0,0,0,.5.44Z"/><path class="cls-4" d="M71.16,41.69V41l-.06,0-.39,0a.89.89,0,0,0-.84.61V41h-.09l-1.32.2v.23h.06c.41,0,.5.12.5.5v2.17h.85V42.53a.78.78,0,0,1,.84-.88.8.8,0,0,1,.3.06l.15,0v-.06Z"/><path class="cls-4" d="M74.46,42.24c0-.82-.47-1.25-1.4-1.25s-1.55.49-1.55,1.49a1.61,1.61,0,0,0,1.81,1.69,3.89,3.89,0,0,0,1-.17l0,0v-.38l-.06,0a2.91,2.91,0,0,1-.66.08c-.89,0-1.2-.73-1.23-1.4h2v-.06ZM73,41.34a.54.54,0,0,1,.59.61h-1.2a.61.61,0,0,1,.61-.61Z"/><path class="cls-4" d="M82.07,41a1.37,1.37,0,0,0-1.17.66V39.58h-.06l-1.32.18V40h.06c.41,0,.5.12.5.5v3.6h.82V42.53a1,1,0,0,1,.79-1c.46,0,.46.35.46.64v1.91H83v-2c0-.32,0-1.11-.94-1.11Z"/><path class="cls-4" d="M86.75,42.24c0-.82-.47-1.25-1.38-1.25s-1.58.49-1.58,1.49a1.61,1.61,0,0,0,1.82,1.69,4,4,0,0,0,1-.17l.06,0v-.38l-.09,0a2.8,2.8,0,0,1-.64.08c-.91,0-1.23-.73-1.26-1.4h2v-.06Zm-1.41-.9c.45,0,.56.32.56.61H84.7a.63.63,0,0,1,.64-.61Z"/><path class="cls-4" d="M77.38,40.11v1h-.55v.36h.55v1.86c0,.82.5.89,1.15.89a4.1,4.1,0,0,0,.49-.06h0v-.39H79a.57.57,0,0,1-.26,0c-.5,0-.53-.14-.53-.55V41.43h.94v-.36H78.2v-1Z"/><path class="cls-4" d="M93.8,39.76H93v3.31l-2.16-3.31H88.85V40L89,40c.5.08.53.11.53.58v3.48h.9V40.63c.18.26,2.29,3.45,2.29,3.45h1.1V39.76Z"/><path class="cls-4" d="M97.57,42.24c0-.82-.44-1.25-1.37-1.25s-1.55.49-1.55,1.49a1.61,1.61,0,0,0,1.81,1.69,2.79,2.79,0,0,0,1-.17l0,0v-.38l-.06,0a2.91,2.91,0,0,1-.66.08,1.25,1.25,0,0,1-1.23-1.4h2v-.06Zm-1.4-.9c.44,0,.55.32.58.61h-1.2a.61.61,0,0,1,.62-.61Z"/><path class="cls-4" d="M102.2,40.11v1h-.56v.36h.56v1.86c0,.82.49.89,1.14.89a4.1,4.1,0,0,0,.49-.06h0v-.39h-.06a.57.57,0,0,1-.26,0c-.5,0-.52-.14-.52-.55V41.43H104v-.36H103v-1Z"/><path class="cls-4" d="M100.5,42l.88-1h-.9l-.79.94L99,41.07H97.66v.24h.06a.89.89,0,0,1,.82.47l.52.66-.88,1h.91l.38-.45.82,1.08h1L99.7,42Z"/><polygon class="cls-5" points="102.17 40.11 101.29 40.11 102.37 38.88 103.25 38.88 102.17 40.11 102.17 40.11"/></g><rect class="cls-3" x="55.26" y="47.27" width="45.77" height="0.22"/><path class="cls-3" d="M44.94,57.17h1l1.3,3.92,1.32-3.92h1l.94,5.62h-1L49,59.24l-1.2,3.55h-.94l-1.18-3.55L45,62.79H44Z"/><path class="cls-3" d="M51.44,57.17h3.07v1h-2v1h2v1h-2v1.48h2v1H51.44Z"/><path class="cls-3" d="M56.9,57.17H58V60.9a4,4,0,0,1-.14,1.25,1.19,1.19,0,0,1-.47.57,1.42,1.42,0,0,1-.78.21A2,2,0,0,1,55,62.12l.77-.72a2,2,0,0,0,.44.39.77.77,0,0,0,.34.1.28.28,0,0,0,.26-.15,1.49,1.49,0,0,0,.08-.64Z"/><path class="cls-3" d="M61.92,57a2.83,2.83,0,0,1,2,.86A2.89,2.89,0,0,1,64.82,60,2.85,2.85,0,0,1,64,62.08a2.95,2.95,0,0,1-4.16,0,3,3,0,0,1,.62-4.63A2.86,2.86,0,0,1,61.92,57Zm0,1a1.77,1.77,0,0,0-1.31.54A1.9,1.9,0,0,0,60.06,60a1.78,1.78,0,0,0,.67,1.47,1.8,1.8,0,0,0,1.19.43,1.78,1.78,0,0,0,1.3-.55,2,2,0,0,0,0-2.72A1.77,1.77,0,0,0,61.9,58.08Z"/><path class="cls-3" d="M65.91,57.17H67a3.8,3.8,0,0,1,1.33.17,1.34,1.34,0,0,1,.63.55,1.69,1.69,0,0,1,.24.91,1.62,1.62,0,0,1-.26.93,1.59,1.59,0,0,1-.8.56l1.33,2.5H68.34l-1.27-2.38H67v2.38H65.91ZM67,59.37h.33a1.26,1.26,0,0,0,.7-.14.49.49,0,0,0,.2-.44.58.58,0,0,0-.1-.32.55.55,0,0,0-.25-.2,2,2,0,0,0-.59-.06H67Z"/><path class="cls-3" d="M72.56,57.17h1.13a3.8,3.8,0,0,1,1.33.17,1.38,1.38,0,0,1,.64.55,1.69,1.69,0,0,1,.24.91,1.55,1.55,0,0,1-.31,1,1.58,1.58,0,0,1-.84.54,4.61,4.61,0,0,1-1.12.09v2.38H72.56Zm1.07,2.2H74a1.79,1.79,0,0,0,.56-.06.5.5,0,0,0,.24-.19.55.55,0,0,0,.09-.32.5.5,0,0,0-.25-.47,1.34,1.34,0,0,0-.68-.12h-.3Z"/><path class="cls-3" d="M77,57.17h1.13a3.8,3.8,0,0,1,1.33.17,1.34,1.34,0,0,1,.63.55,1.69,1.69,0,0,1,.24.91,1.62,1.62,0,0,1-.26.93,1.59,1.59,0,0,1-.8.56l1.33,2.5H79.45l-1.26-2.38h-.1v2.38H77Zm1.07,2.2h.33a1.26,1.26,0,0,0,.7-.14.49.49,0,0,0,.2-.44.51.51,0,0,0-.1-.32.55.55,0,0,0-.25-.2,1.93,1.93,0,0,0-.59-.06h-.29Z"/><path class="cls-3" d="M84.14,57a2.81,2.81,0,0,1,2,.86A2.9,2.9,0,0,1,87.05,60a2.86,2.86,0,0,1-.85,2.08,2.95,2.95,0,0,1-4.16,0,3,3,0,0,1-.45-3.56,2.85,2.85,0,0,1,1.08-1.07A2.8,2.8,0,0,1,84.14,57Zm0,1a1.8,1.8,0,0,0-1.32.54A1.9,1.9,0,0,0,82.28,60,1.78,1.78,0,0,0,83,61.47a1.82,1.82,0,0,0,1.19.43,1.78,1.78,0,0,0,1.3-.55,2,2,0,0,0,0-2.72A1.76,1.76,0,0,0,84.13,58.08Z"/><path class="cls-3" d="M87.66,57.17H88.8l1,2,1.05-2H92l-1.64,3.19v2.43H89.31V60.36Z"/><path class="cls-3" d="M92.91,57.17H96v1H94v1h2v1H94v1.48h2v1H92.91Z"/><path class="cls-3" d="M102.14,58.16l-.74.71a2.32,2.32,0,0,0-1.72-.8,1.84,1.84,0,0,0-1.36.55A1.82,1.82,0,0,0,97.77,60,2,2,0,0,0,98,61a1.9,1.9,0,0,0,.69.69,2.09,2.09,0,0,0,1,.25,2,2,0,0,0,.85-.18,3.17,3.17,0,0,0,.85-.63l.72.76a4.06,4.06,0,0,1-1.18.84,3.33,3.33,0,0,1-1.26.23,3,3,0,0,1-2.6-4.45,2.76,2.76,0,0,1,1.09-1,3,3,0,0,1,1.52-.4,3.2,3.2,0,0,1,2.45,1.13Z"/><path class="cls-3" d="M102.53,57.17h3.1v1.06h-1v4.56h-1.09V58.23h-1Z"/><path class="cls-3" d="M109,57a2.81,2.81,0,0,1,2,.86,2.9,2.9,0,0,1,.86,2.11,2.82,2.82,0,0,1-.85,2.08,2.77,2.77,0,0,1-2,.85,2.81,2.81,0,0,1-2.11-.87,3,3,0,0,1-.83-2.08,2.9,2.9,0,0,1,.39-1.48A3,3,0,0,1,109,57Zm0,1a1.76,1.76,0,0,0-1.31.54,1.87,1.87,0,0,0-.54,1.38A1.86,1.86,0,0,0,109,61.9a1.75,1.75,0,0,0,1.29-.55,2,2,0,0,0,0-2.72A1.76,1.76,0,0,0,109,58.08Z"/><path class="cls-3" d="M46.65,69.32h1.27a4.25,4.25,0,0,1,1.82.3,2.4,2.4,0,0,1,1,1,3.25,3.25,0,0,1,.38,1.59,3.29,3.29,0,0,1-.21,1.2,2.63,2.63,0,0,1-.6.9,2.09,2.09,0,0,1-.82.5,6,6,0,0,1-1.54.14H46.65Zm1.06,1v3.54h.5a2.52,2.52,0,0,0,1.06-.16,1.36,1.36,0,0,0,.54-.57,2.09,2.09,0,0,0,.21-1,1.88,1.88,0,0,0-.5-1.39,2,2,0,0,0-1.45-.44Z"/><path class="cls-3" d="M52.13,69.32h3.06v1h-2v1h2v1h-2v1.48h2v1H52.13Z"/><path class="cls-3" d="M58.31,69.32h1.06v5.62H58.31Z"/><path class="cls-3" d="M60.57,69.32h1L64,73V69.32h1.07v5.62h-1l-2.4-3.69v3.69H60.57Z"/><path class="cls-3" d="M66.36,69.32h1L69.79,73V69.32h1.07v5.62h-1l-2.41-3.69v3.69H66.36Z"/><path class="cls-3" d="M74.8,69.17a2.77,2.77,0,0,1,2,.87,2.94,2.94,0,0,1-2,5,2.76,2.76,0,0,1-2.1-.88,2.88,2.88,0,0,1-.84-2.08,2.92,2.92,0,0,1,.39-1.48,2.89,2.89,0,0,1,1.07-1.07A3,3,0,0,1,74.8,69.17Zm0,1a1.76,1.76,0,0,0-1.31.54A1.89,1.89,0,0,0,73,72.14a1.8,1.8,0,0,0,.67,1.48,1.82,1.82,0,0,0,1.19.42,1.74,1.74,0,0,0,1.3-.55,1.9,1.9,0,0,0,.53-1.35,1.87,1.87,0,0,0-.54-1.36A1.75,1.75,0,0,0,74.79,70.22Z"/><path class="cls-3" d="M78.29,69.32h1.1l1.42,4,1.43-4h1.1l-2,5.62h-1Z"/><path class="cls-3" d="M85.91,69.32H87l2.16,5.62H88.05l-.44-1.16H85.32l-.46,1.16H83.75Zm.55,1.49-.75,1.93h1.5Z"/><path class="cls-3" d="M95.15,70.3l-.74.72a2.33,2.33,0,0,0-1.72-.81,1.88,1.88,0,0,0-1.91,1.91,2.05,2.05,0,0,0,.24,1,1.8,1.8,0,0,0,.69.68,2,2,0,0,0,1,.25,2.15,2.15,0,0,0,.85-.17,3.09,3.09,0,0,0,.85-.64l.72.76a3.71,3.71,0,0,1-1.18.84,3.15,3.15,0,0,1-1.26.24,3,3,0,0,1-2.15-.83,2.92,2.92,0,0,1-.83-2.13,3,3,0,0,1,.38-1.5,2.9,2.9,0,0,1,1.09-1.05,3.22,3.22,0,0,1,4,.73Z"/><path class="cls-3" d="M96,69.32h1.07v5.62H96Z"/><path class="cls-3" d="M100.93,69.17a2.77,2.77,0,0,1,2,.87,2.84,2.84,0,0,1,.86,2.1,2.87,2.87,0,0,1-.84,2.09,2.83,2.83,0,0,1-2.06.85,2.77,2.77,0,0,1-2.1-.88A2.88,2.88,0,0,1,98,72.12a2.92,2.92,0,0,1,.39-1.48,2.89,2.89,0,0,1,1.07-1.07A3,3,0,0,1,100.93,69.17Zm0,1a1.76,1.76,0,0,0-1.31.54,1.89,1.89,0,0,0-.53,1.38,1.8,1.8,0,0,0,.67,1.48,1.82,1.82,0,0,0,1.19.42,1.74,1.74,0,0,0,1.3-.55,1.9,1.9,0,0,0,.53-1.35,1.87,1.87,0,0,0-.54-1.36A1.75,1.75,0,0,0,100.92,70.22Zm.2-2.84h1.23l-1.4,1.5h-.74Z"/><path class="cls-3" d="M104.85,69.32h1L108.29,73V69.32h1.07v5.62h-1l-2.41-3.69v3.69h-1.07Z"/><path class="cls-3" d="M52.2,81.4h1.27a4.22,4.22,0,0,1,1.82.3,2.34,2.34,0,0,1,1,1,3.15,3.15,0,0,1,.39,1.59,3.29,3.29,0,0,1-.22,1.2,2.47,2.47,0,0,1-.59.9,2.12,2.12,0,0,1-.83.5,5.82,5.82,0,0,1-1.53.14H52.2Zm1.06,1V86h.5a2.52,2.52,0,0,0,1.06-.16,1.38,1.38,0,0,0,.55-.57,2.09,2.09,0,0,0,.21-1,1.84,1.84,0,0,0-.51-1.39,2,2,0,0,0-1.44-.44Z"/><path class="cls-3" d="M57.68,81.4h3.07v1h-2v1h2v1h-2V86h2v1H57.68Z"/><path class="cls-3" d="M63.94,81.4H65V86h1.55v1H63.94Z"/><path class="cls-3" d="M69.09,81.4h1.09L72.34,87H71.23l-.44-1.16h-2.3L68,87H66.93Zm.55,1.49-.75,1.93h1.5Z"/><path class="cls-3" d="M75.43,81.4h1.13a3.85,3.85,0,0,1,1.33.16,1.39,1.39,0,0,1,.63.55,1.73,1.73,0,0,1,.24.92,1.49,1.49,0,0,1-.26.92,1.62,1.62,0,0,1-.8.57L79,87H77.86L76.6,84.64h-.1V87H75.43Zm1.07,2.19h.33a1.35,1.35,0,0,0,.71-.13.51.51,0,0,0,.19-.45.53.53,0,0,0-.1-.32.48.48,0,0,0-.25-.19,1.93,1.93,0,0,0-.59-.06H76.5Z"/><path class="cls-3" d="M79.9,81.4H83v1H81v1h2v1H81V86h2v1H79.9Z"/><path class="cls-3" d="M89.15,82.31l-.75.75a2.21,2.21,0,0,0-1.67-.76,2,2,0,0,0-1.39.55,1.82,1.82,0,0,0-.56,1.34,1.89,1.89,0,0,0,.58,1.38,2,2,0,0,0,1.44.56,1.69,1.69,0,0,0,.93-.23,1.62,1.62,0,0,0,.62-.73H86.72v-1h2.83v.23a2.71,2.71,0,0,1-.38,1.4,2.6,2.6,0,0,1-1,1,2.82,2.82,0,0,1-1.42.35,3.16,3.16,0,0,1-1.56-.38,2.85,2.85,0,0,1-1.09-1.09,3,3,0,0,1-.4-1.51,2.82,2.82,0,0,1,.74-1.94,2.89,2.89,0,0,1,2.28-1,3.33,3.33,0,0,1,1.37.28A3,3,0,0,1,89.15,82.31Z"/><path class="cls-3" d="M90.46,81.4h1.06V87H90.46Z"/><path class="cls-3" d="M95.38,81.25a2.78,2.78,0,0,1,2.05.87,2.88,2.88,0,0,1,.86,2.1,2.84,2.84,0,0,1-.85,2.09,2.81,2.81,0,0,1-2,.85,2.78,2.78,0,0,1-2.11-.88,3,3,0,0,1-.44-3.56,2.82,2.82,0,0,1,1.07-1.07A2.9,2.9,0,0,1,95.38,81.25Zm0,1a1.76,1.76,0,0,0-1.31.54,1.9,1.9,0,0,0-.54,1.38,1.83,1.83,0,0,0,.67,1.48,1.87,1.87,0,0,0,1.2.42,1.72,1.72,0,0,0,1.29-.55,1.85,1.85,0,0,0,.54-1.35,1.87,1.87,0,0,0-.54-1.36A1.77,1.77,0,0,0,95.37,82.3Zm.19-2.84H96.8L95.4,81h-.75Z"/><path class="cls-3" d="M99.3,81.4h1l2.4,3.69V81.4h1.07V87h-1l-2.4-3.69V87H99.3Z"/><path class="cls-6" d="M65.81,95.49H64a3.46,3.46,0,0,1,1-2.43,3.16,3.16,0,0,1,2.31-.89,3.11,3.11,0,0,1,1.54.37,2.7,2.7,0,0,1,1.06,1.06,2.75,2.75,0,0,1,.4,1.41,4.23,4.23,0,0,1-.48,1.83,10.47,10.47,0,0,1-1.77,2.32L67,100.29H70.4V102H63.78v-.87l3-3a8.81,8.81,0,0,0,1.43-1.75,2.52,2.52,0,0,0,.35-1.19,1.23,1.23,0,0,0-.36-.91,1.31,1.31,0,0,0-1-.36,1.24,1.24,0,0,0-1,.43A1.83,1.83,0,0,0,65.81,95.49Z"/><path class="cls-6" d="M74.31,92.17a3.06,3.06,0,0,1,1.8.52,3.17,3.17,0,0,1,1.17,1.56,10.61,10.61,0,0,1,0,5.91,3.39,3.39,0,0,1-1.13,1.56,3,3,0,0,1-1.79.49,3.09,3.09,0,0,1-1.81-.5,3.26,3.26,0,0,1-1.15-1.52,7.9,7.9,0,0,1-.42-2.9,6.83,6.83,0,0,1,.82-3.82A2.9,2.9,0,0,1,74.31,92.17Zm0,1.73a1.21,1.21,0,0,0-.81.3,1.89,1.89,0,0,0-.55,1,9.26,9.26,0,0,0-.19,2.12,5.18,5.18,0,0,0,.43,2.5,1.29,1.29,0,0,0,1.12.69,1.19,1.19,0,0,0,1.05-.65,7.8,7.8,0,0,0,0-5.25A1.25,1.25,0,0,0,74.35,93.9Z"/><path class="cls-6" d="M79.92,92.41h2.73V102H80.84V94.12h-2Z"/><path class="cls-6" d="M88.45,102.21l-1.55-.76,1.68-3.26a2.8,2.8,0,0,1-2.07-.87,3,3,0,0,1-.85-2.16,3,3,0,0,1,3-3,2.85,2.85,0,0,1,2.15.9,2.88,2.88,0,0,1,.86,2.07,3,3,0,0,1-.13.88,9,9,0,0,1-.61,1.38Zm.23-5.74a1.15,1.15,0,0,0,.85-.37,1.4,1.4,0,0,0,0-1.85,1.12,1.12,0,0,0-.84-.37,1.16,1.16,0,0,0-.87.37,1.29,1.29,0,0,0-.36.93,1.26,1.26,0,0,0,.35.92A1.21,1.21,0,0,0,88.68,96.47Z"/></g></svg>